<?xml version="1.0" encoding="utf-8"?>
<?xml-stylesheet type="text/xsl" href="rss1.xsl"?>
<rss version="2.0" xmlns:atom="http://www.w3.org/2005/Atom" xmlns:content="http://purl.org/rss/1.0/modules/content/" xmlns:dc="http://purl.org/dc/elements/1.1/" xmlns:media="http://search.yahoo.com/mrss/">
<channel>
 <title>Getty</title>
 <link>http://www.gettyimg.com/</link>
 <atom:link href="http://www.gettyimg.com/" rel="self" type="application/rss+xml" />

 
                <item>
                <title><![CDATA[【UPSCALED】The Chipettes - Single Ladies (Put A Ring On It) [4K AI Upscale | HEVC 10-bit | PCM 16-bit 44.1 kHz]]]></title>
                <link><![CDATA[https://sharemania.us/threads/the-chipettes-single-ladies-put-a-ring-on-it-4k-ai-upscale-hevc-10-bit-pcm-16-bit-44-1-khz.246940/]]></link>
                <description><![CDATA[<article>
<blockquote class="messageText SelectQuoteContainer ugc baseHtml">
<img src="https://images2.imgbox.com/6c/4c/HQPozgbY_o.jpg" class="bbCodeImage LbImage" alt="[​IMG]" data-url="https://images2.imgbox.com/6c/4c/HQPozgbY_o.jpg" style=""><br>
<br>
<b>Genre: <span style="color: #0059b3">Funk / Soul, Pop</span> <br>
Style: <span style="color: #0059b3">Contemporary R&amp;B</span> <br>
Year: <span style="color: #0059b3">2008 (The Chipettes cover: 2009)</span><br>
Video Source: <span style="color: #0059b3">Blu-ray, 1080p</span><br>
Audio Source: <span style="color: #0059b3">Qobuz</span></b><br>
<br>
"<b>Single Ladies (Put a Ring on It)</b>" is a song recorded by American singer Beyoncé, from her third studio album, <i>I Am... Sasha Fierce</i> (2008). The song was written by Beyoncé, Terius "The-Dream" Nash, Thaddis "Kuk" Harrell, and Christopher "Tricky" Stewart, and produced by Nash and Stewart. It explores men's unwillingness to propose or commit. In the song, the female protagonist is in a club to celebrate her single status.<br>
<br>
"Single Ladies" won three Grammy Awards in 2009, including Song of the Year, among other accolades. Several news media sources named it as one of the best songs of 2008, while some considered it one of the best songs of the decade. Rolling Stone ranked it at number 228 on their list of the 500 greatest songs of all time in 2021. It topped the US <i>Billboard</i> Hot 100 chart for four non-consecutive weeks and has been certified 9x platinum by the Recording Industry Association of America (RIAA). The song charted among the top ten within the singles category in several other countries. Globally, it was 2009's seventh best-selling digital single with 6.1 million copies sold.<br>
<br>
The song appeared in <i>Alvin and the Chipmunks: The Squeakquel</i> a year after the song was released as it was sung by the Chipettes. An extended version is also included in the <i>Alvin and the Chipmunks: The Squeakquel: Original Motion Picture Soundtrack</i> (2009). The music video of the Chipettes cover was released on RHINO's YouTube channel on on August 4, 2010. It has accumulated almost 706 million views as of June 2024 and it is the most viewed music video on RHINO's channel.<br>
<br>
<b>Release Info</b><br>
The video track is upscaled to 4K with Topaz Video AI and encoded to HEVC 10-bit.<br>
The PCM track (Qobuz, CD quality) is synced and edited with Adobe Audition.<br>
The timed lyrics are synced + edited. Enable the subtitles to see the lyrics.<br>
<br>
<div class="ToggleTriggerAnchor bbCodeSpoilerContainer">
<button type="button" class="button bbCodeSpoilerButton ToggleTrigger Tooltip JsOnly" data-target="> .SpoilerTarget"><span>Spoiler: <span class="SpoilerTitle">Media Info</span></span></button>
<div class="SpoilerTarget bbCodeSpoilerText">
<div class="bbCodeBlock bbCodeCode">
<div class="type">Code:</div>
<pre>General
Unique ID                      : 50218772415444979551743294737577371176 (0x25C7C8A4448CDE0CBAF2DBEC26D36628)
Complete name                  : The Chipettes - Single Ladies (Put A Ring On It).mkv
Format                         : Matroska
Format version                 : Version 4 / Version 2
File size                      : 469 MiB
Duration                       : 3 min 7 s
Overall bit rate               : 21.0 Mb/s
Frame rate                     : 23.976 FPS
Encoded date                   : 2024-06-03 16:09:27 UTC
Writing application            : mkvmerge v84.0 ('Sleeper') 64-bit
Writing library                : libebml v1.4.5 + libmatroska v1.7.1

Video
ID                             : 1
Format                         : HEVC
Format/Info                    : High Efficiency Video Coding
Format profile                 : Main 10@L5@Main
Codec ID                       : V_MPEGH/ISO/HEVC
Duration                       : 3 min 7 s
Bit rate                       : 19.3 Mb/s
Width                          : 3 840 pixels
Height                         : 2 076 pixels
Display aspect ratio           : 1.85:1
Frame rate mode                : Constant
Frame rate                     : 23.976 (24000/1001) FPS
Color space                    : YUV
Chroma subsampling             : 4:2:0
Bit depth                      : 10 bits
Bits/(Pixel*Frame)             : 0.101
Stream size                    : 432 MiB (92%)
Default                        : Yes
Forced                         : No
Color range                    : Limited
Color primaries                : BT.709
Transfer characteristics       : BT.709
Matrix coefficients            : BT.709

Audio #1
ID                             : 2
Format                         : PCM
Format settings                : Little / Signed
Codec ID                       : A_PCM/INT/LIT
Duration                       : 3 min 7 s
Bit rate mode                  : Constant
Bit rate                       : 1 411.2 kb/s
Channel(s)                     : 2 channels
Sampling rate                  : 44.1 kHz
Frame rate                     : 25.002 FPS (1764 SPF)
Bit depth                      : 16 bits
Stream size                    : 31.5 MiB (7%)
Title                          : Lossless
Language                       : English
Default                        : Yes
Forced                         : No

Audio #2
ID                             : 3
Format                         : AC-3
Format/Info                    : Audio Coding 3
Commercial name                : Dolby Digital
Codec ID                       : A_AC3
Duration                       : 3 min 7 s
Bit rate mode                  : Constant
Bit rate                       : 224 kb/s
Channel(s)                     : 2 channels
Channel layout                 : L R
Sampling rate                  : 48.0 kHz
Frame rate                     : 31.250 FPS (1536 SPF)
Compression mode               : Lossy
Stream size                    : 5.00 MiB (1%)
Title                          : Original
Language                       : English
Service kind                   : Complete Main
Default                        : No
Forced                         : No
Dialog Normalization           : -27 dB
compr                          : 6.02 dB
dynrng                         : 6.02 dB
dsurmod                        : Not Dolby Surround encoded
dialnorm_Average               : -27 dB
dialnorm_Minimum               : -27 dB
dialnorm_Maximum               : -27 dB

Text
ID                             : 4
Format                         : UTF-8
Codec ID                       : S_TEXT/UTF8
Codec ID/Info                  : UTF-8 Plain Text
Duration                       : 2 min 49 s
Bit rate                       : 128 b/s
Frame rate                     : 0.383 FPS
Count of elements              : 65
Stream size                    : 2.66 KiB (0%)
Title                          : Lyrics
Language                       : English
Default                        : No
Forced                         : No
</pre>
</div></div>
</div><br>
<b>Note to the peeps @ RuTracker: Give credit if you post the work of someone else!</b><br>
- Hurby4 aka ADHDerby<br>
<br>
<div class="bbCodeBlock bbCodeVfcHH HiddenContent">
<div class="attribution type">Hidden Content:</div>
<blockquote>You must reply before you can see the hidden data contained here.</blockquote>
</div>
<div class="messageTextEndMarker">&nbsp;</div>
</blockquote>
</article>]]></description>
                <author><![CDATA[ADHDerby]]></author>
                </item>

                
                <item>
                <title><![CDATA[【Actresses】Deanna Dare  - The Demonic Dead (2019)1080p]]></title>
                <link><![CDATA[https://sharemania.us/threads/deanna-dare-the-demonic-dead-2019-1080p.246941/]]></link>
                <description><![CDATA[<article>
<blockquote class="messageText SelectQuoteContainer ugc baseHtml">
Deanna Dare - The Demonic Dead (2019)1080p<br>
<br>
<a href="https://imgbox.com/xXEXmEE4" target="_blank" class="externalLink" rel="nofollow"><img src="https://thumbs2.imgbox.com/9e/58/xXEXmEE4_t.jpg" class="bbCodeImage LbImage" alt="[​IMG]" data-url="https://thumbs2.imgbox.com/9e/58/xXEXmEE4_t.jpg"></a> <a href="https://imgbox.com/OJo8A9wP" target="_blank" class="externalLink" rel="nofollow"><img src="https://thumbs2.imgbox.com/46/d1/OJo8A9wP_t.jpg" class="bbCodeImage LbImage" alt="[​IMG]" data-url="https://thumbs2.imgbox.com/46/d1/OJo8A9wP_t.jpg"></a> <a href="https://imgbox.com/2AIsKNT6" target="_blank" class="externalLink" rel="nofollow"><img src="https://thumbs2.imgbox.com/af/3a/2AIsKNT6_t.jpg" class="bbCodeImage LbImage" alt="[​IMG]" data-url="https://thumbs2.imgbox.com/af/3a/2AIsKNT6_t.jpg"></a> <a href="https://imgbox.com/ab6WbOF0" target="_blank" class="externalLink" rel="nofollow"><img src="https://thumbs2.imgbox.com/dc/85/ab6WbOF0_t.jpg" class="bbCodeImage LbImage" alt="[​IMG]" data-url="https://thumbs2.imgbox.com/dc/85/ab6WbOF0_t.jpg"></a> <a href="https://imgbox.com/UdF6KqaD" target="_blank" class="externalLink" rel="nofollow"><img src="https://thumbs2.imgbox.com/44/39/UdF6KqaD_t.jpg" class="bbCodeImage LbImage" alt="[​IMG]" data-url="https://thumbs2.imgbox.com/44/39/UdF6KqaD_t.jpg"></a> <a href="https://imgbox.com/x7FEAndE" target="_blank" class="externalLink" rel="nofollow"><img src="https://thumbs2.imgbox.com/cc/b6/x7FEAndE_t.jpg" class="bbCodeImage LbImage" alt="[​IMG]" data-url="https://thumbs2.imgbox.com/cc/b6/x7FEAndE_t.jpg"></a><br>
Duration: 0:00:59 Resolution: 1920x1080 Format: mp4 Size: 32.75 MB<br>
<a href="https://filejoker.net/lm2f5pclc4nf" target="_blank" class="externalLink" rel="nofollow">https://filejoker.net/lm2f5pclc4nf</a>
<div class="messageTextEndMarker">&nbsp;</div>
</blockquote>
</article>]]></description>
                <author><![CDATA[piqeros]]></author>
                </item>

                </channel></rss>